# xmcd
#
# Track frame offsets:
#	150
#	17028
#	34281
#	52590
#	70568
#	87503
#	103229
#	119363
#	133526
#	148819
#	164724
#	178928
#	195922
#	211764
#	229291
#	244931
#	261776
#	278705
#	294237
#	310626
#
# Disc length: 4339 seconds
#
# Revision: 4
# Processed by: cddbd v1.5.2PL0 Copyright (c) Steve Scherf et al.
# Submitted via: EasyCDDAExtractor 12.0.1.1
#
DISCID=2110f114
DTITLE=Various Artist - Bravo Hits, Vol. 30 [CD 1)
DYEAR=2000
DGENRE=Blues
TTITLE0=Bon Jovi - It's My Life
TTITLE1=Sonique - It Feels So Good
TTITLE2=Anastacia - I'm Outta Love
TTITLE3=Jennifer Lopez - Let's Get Loud
TTITLE4=Loona - Latino Lover (Family Radio Version)
TTITLE5=Zlatko and Juergen - Groszer Bruder (Single Mix)
TTITLE6=Gigi D'agostino - Another Way (Radio Cut)
TTITLE7=Vengaboys - Uncle John From Jamaica (Hitradio Mix)
TTITLE8=Sasha - Chemical Reaction (New Radio Mix)
TTITLE9=Britney Spears - Oops! ... I Did It Again (Album Version)
TTITLE10='n Sync - I'll Never Stop (Radio Edit)
TTITLE11=Lara Fabian - I Will Love Again
TTITLE12=Love Connection - The Bomb (Triple X Radio Mix)
TTITLE13=Paul Van Dyk - We Are Alive
TTITLE14=Dr. Motte and Westbam - Love Parade 2000 (One World One Love Parade) (S
TTITLE14=hort)
TTITLE15=Schiller - Ein Schoener Tag (Fernseh-Fassung)
TTITLE16=Scooter - She's The Sun (Radio Version)
TTITLE17=Deichkind Ft. Nina - Bon Voyage (Single Version)
TTITLE18=Laith Al-Deen - Bilder Von Dir (Radio Edit)
TTITLE19=Alex - Ich Will Nur Dich
EXTD=
EXTT0=
EXTT1=
EXTT2=
EXTT3=
EXTT4=
EXTT5=
EXTT6=
EXTT7=
EXTT8=
EXTT9=
EXTT10=
EXTT11=
EXTT12=
EXTT13=
EXTT14=
EXTT15=
EXTT16=
EXTT17=
EXTT18=
EXTT19=
PLAYORDER=
